<svg width="574" height="234" viewBox="0 0 574 234" fill="none" xmlns="http://www.w3.org/2000/svg">
<path d="M422 207.5C422 217 421 229.5 389.5 232.5C364.5 237 212.874 230.073 187.941 220.54C180.607 217.753 169.827 213.28 155.601 207.12C118.054 190.693 94.6606 181.013 85.4206 178.08V175.88H85.8605C86.0072 175.88 86.1539 175.88 86.3006 175.88C103.754 175.88 119.081 170.38 132.281 159.38C138.881 153.806 144.307 146.326 148.561 136.94C153.401 126.233 155.821 114.133 155.821 100.64C155.821 81.7197 151.054 65.2197 141.521 51.1397C136.534 43.9531 130.227 38.0864 122.601 33.5397C114.241 28.5531 104.781 26.0597 94.2206 26.0597C77.7939 26.0597 63.8605 32.3664 52.4205 44.9797C40.9805 57.4464 35.2605 75.0464 35.2605 97.7797C35.2605 113.473 38.4139 126.673 44.7205 137.38C52.2005 149.993 63.2005 156.3 77.7206 156.3C80.8006 156.3 84.3206 155.86 88.2806 154.98C92.3872 153.953 96.5672 151.24 100.821 146.84C105.221 142.44 108.007 136.72 109.181 129.68L111.601 129.9C111.454 142.22 107.861 151.166 100.821 156.74C93.6339 162.313 85.4939 165.1 76.4006 165.1C71.7072 165.1 66.6472 164.733 61.2206 164C43.1805 160.92 28.4405 153.22 17.0005 140.9C5.70721 128.58 0.0605469 113.62 0.0605469 96.0197C0.0605469 84.873 2.33388 74.3864 6.88055 64.5597C16.4139 44.4664 33.1339 30.4597 57.0405 22.5397C68.6272 18.7264 81.2406 16.8197 94.8806 16.8197C123.481 16.8197 146.654 24.4464 164.401 39.6997C182.147 54.9531 191.021 74.1664 191.021 97.3397C191.021 108.78 188.821 119.413 184.421 129.24C180.167 139.066 174.447 147.28 167.261 153.88C152.594 167.666 135.434 176.026 115.781 178.96C128.687 180.866 145.334 184.02 165.721 188.42C186.254 192.966 200.554 196.12 208.621 197.88C240.887 204.773 363 216.5 380.5 203.82C382.993 203.82 401.573 26.573 407 26.2797C412.427 25.9864 386.58 3.34701 394.5 1.00034C402.567 -1.34633 411.013 5.54695 416 1.00029L407.534 26.1194C404.161 36.2394 422 175 422 207.5Z" fill="#FF5C16"/>
<path d="M372.258 23.1997H368.518C365.438 23.1997 362.724 24.2264 360.378 26.2797C358.178 28.1864 357.078 30.6064 357.078 33.5397V119.34C357.078 137.38 351.431 151.68 340.138 162.24C328.844 172.8 313.371 178.08 293.718 178.08C270.544 178.08 252.798 172.946 240.478 162.68C228.158 152.266 221.998 137.893 221.998 119.56V34.1997C221.998 30.9731 220.824 28.333 218.478 26.2797C216.278 24.2264 213.564 23.1997 210.338 23.1997H206.818V20.9997H270.178V23.1997H266.658C263.431 23.1997 260.718 24.2264 258.518 26.2797C256.318 28.1864 255.144 30.6797 254.998 33.7597V117.8C254.998 133.346 258.811 145.666 266.438 154.76C274.064 163.853 284.551 168.4 297.898 168.4C311.244 168.4 321.804 164.146 329.578 155.64C337.351 146.986 341.311 135.326 341.458 120.66V33.7597C341.458 30.6797 340.284 28.1864 337.938 26.2797C335.738 24.2264 333.024 23.1997 329.798 23.1997H326.278V20.9997H372.258V23.1997Z" fill="#FF5C16"/>
<path d="M447.051 16.8197C449.251 17.6997 453.064 18.5797 458.491 19.4597C464.064 20.3397 467.951 20.7797 470.151 20.7797C472.498 20.7797 473.671 20.7797 473.671 20.7797H543.851C551.038 20.7797 556.538 20.4131 560.351 19.6797C564.164 18.7997 566.364 18.2131 566.951 17.9197V19.8997L485.551 165.76H531.751C541.138 165.76 549.278 162.606 556.171 156.3C563.211 149.993 568.198 141.486 571.131 130.78H573.331L565.411 175H443.971V173.02L524.711 30.0197H471.471C464.724 30.1664 459.298 32.2931 455.191 36.3997C451.231 40.3597 449.251 45.7131 449.251 52.4597V55.0997H447.051V16.8197Z" fill="#FF5C16"/>
</svg>
